<svg id="Layer_1" data-name="Layer 1" xmlns="http://www.w3.org/2000/svg" width="516.41024" height="302.8939" viewBox="0 0 516.41024 302.8939">
  <defs>
    <style>
      .cls-1 {
        fill: #05b1ac;
      }

      .cls-2 {
        fill: #d42f21;
      }

      .cls-3 {
        fill: #0c7da4;
      }
    </style>
  </defs>
  <title>ca-logo-sm</title>
  <g>
    <polygon class="cls-1" points="404.503 3.862 323.987 3.862 370.882 146.038 440.901 146.112 386.98 185.8 426.905 300.967 516.41 300.967 404.503 3.862"/>
    <polygon class="cls-2" points="319.836 81.281 359.368 195.333 269.626 253.722 289.392 187.608 232.632 146.111 300.752 146.038 319.836 81.281"/>
    <path class="cls-3" d="M155.65,230.32472l.00115.08386c-.02862.00039-.05689.00211-.08515.00383l-.00035-.02529c-.13076.00313-.25779.01153-.3858.02127-.12789-.00623-.25544-.01113-.38623-.01067l.00034.02529c-.0283-.00094-.0566-.00188-.08522-.00149l-.00115-.08386c-45.41986-.31966-76.264-32.33637-76.878-77.05776-.611-44.5011,29.63178-79.922,75.18269-80.74711A77.39921,77.39921,0,0,1,188.79991,80.61a72.675,72.675,0,0,1,6.44431,3.632c.73738.47182,1.42862,1.00086,2.14639,1.49824,1.46431,1.0057,2.91552,2.02755,4.295,3.13426,1.13728.91966,2.209,1.91211,3.28661,2.89848.86687.78757,1.74782,1.559,2.575,2.38836,1.28354,1.29375,2.49025,2.66444,3.67592,4.05406.17353.20265.3431.408.51925.608l53.81614-52.56442c-.39093-.40136-.76012-.819-1.157-1.21594A146.973,146.973,0,0,0,251.2057,33.48731l.02406-.06623c-.35935-.28264-.75273-.52287-1.1147-.80248-2.49336-1.92084-5.053-3.75025-7.66509-5.51835-.855-.58038-1.68779-1.186-2.55458-1.7496q-4.66863-3.02678-9.54646-5.72551c-.35919-.19876-.70014-.42607-1.06063-.62215-.08216-.04447-.15977-.09733-.24193-.1418l-.01141.01713C206.1287,6.47915,180.09816-.34107,154.29925.01314c-.76838.01055-1.52223.06017-2.28129.09456-.75972-.01353-1.51466-.04244-2.283-.03189C109.30465.6309,68.7309,18.73607,40.91039,48.11137A150.52681,150.52681,0,0,0,.01466,153.96417c.58651,42.71876,15.594,79.89818,47.64148,108.07275,30.00841,26.56369,68.17531,41.27424,108.04753,40.848l-.00056-.0406c.02831.00095.0566.00122.08522.00083l.00032.0233c.12805-.00642.25713-.01086.38586-.01662.12884.00223.258.00312.38617.006l-.00032-.0233c.02862-.00039.0569-.00145.08517-.00316l.00055.04059a159.36738,159.36738,0,0,0,96.21317-34.64583l-38.22408-66.63217C201.5725,218.69466,181.07431,229.44711,155.65,230.32472Z"/>
  </g>
</svg>
